<!--?xml version="1.0" encoding="utf-8"?-->
<!-- Generator: Adobe Illustrator 18.0.0, SVG Export Plug-In . SVG Version: 6.00 Build 0)  -->

<svg version="1.1" id="_x32_" xmlns="http://www.w3.org/2000/svg" xmlns:xlink="http://www.w3.org/1999/xlink" x="0px" y="0px" viewBox="0 0 512 512" style="width: 16px; height: 16px; opacity: 1;" xml:space="preserve">
<style type="text/css">
	.st0{fill:#4B4B4B;}
</style>
<g>
	<path class="st0" d="M503.467,21.068H8.533C3.84,21.068,0,24.908,0,29.601v372.797c0,4.693,3.84,8.533,8.533,8.533h494.934
		c4.693,0,8.533-3.84,8.533-8.533V29.601C512,24.908,508.16,21.068,503.467,21.068z M455.463,354.397H59.568l-3.031-0.002V77.607
		h398.926V354.397z"></path>
	<path class="st0" d="M160.533,442.932h-47.369l-0.39-0.002v0.002h-0.24c0,8.656,0,38.531,0,47.662v0.098c0,0.072,0,0.17,0,0.24h48
		h190.934h47.998c0-8.754,0-39.246,0-48h-47.998H160.533z"></path>
</g>
</svg>
